<?xml version="1.0" encoding="UTF-8" standalone="no"?>
<!DOCTYPE svg PUBLIC "-//W3C//DTD SVG 1.1//EN"
 "http://www.w3.org/Graphics/SVG/1.1/DTD/svg11.dtd">
<!-- Generated by graphviz version 2.47.0 (20210316.0004)
 -->
<!-- Title: dependencies Pages: 1 -->
<svg width="504pt" height="284pt"
 viewBox="0.00 0.00 504.00 284.00" xmlns="http://www.w3.org/2000/svg" xmlns:xlink="http://www.w3.org/1999/xlink">
<g id="graph0" class="graph" transform="scale(1 1) rotate(0) translate(4 280)">
<title>dependencies</title>
<polygon fill="white" stroke="transparent" points="-4,4 -4,-280 500,-280 500,4 -4,4"/>
<text text-anchor="start" x="227.01" y="-42.4" font-family="Times-12" font-weight="bold" font-size="14.00">Legend</text>
<polygon fill="#ffffb3" stroke="transparent" points="14,-10 14,-30 34,-30 34,-10 14,-10"/>
<text text-anchor="start" x="37.63" y="-15.4" font-family="Times-12" font-size="14.00"> &#160;Declarations</text>
<polygon fill="#8dd3c7" stroke="transparent" points="127,-10 127,-30 147,-30 147,-10 127,-10"/>
<text text-anchor="start" x="150.73" y="-15.4" font-family="Times-12" font-size="14.00"> &#160;Module</text>
<polygon fill="#80b1d3" stroke="transparent" points="213,-10 213,-30 233,-30 233,-10 213,-10"/>
<text text-anchor="start" x="236.78" y="-15.4" font-family="Times-12" font-size="14.00"> &#160;Bootstrap</text>
<polygon fill="#fdb462" stroke="transparent" points="310,-10 310,-30 330,-30 330,-10 310,-10"/>
<text text-anchor="start" x="333.67" y="-15.4" font-family="Times-12" font-size="14.00"> &#160;Providers</text>
<polygon fill="#fb8072" stroke="transparent" points="406,-10 406,-30 426,-30 426,-10 406,-10"/>
<text text-anchor="start" x="429.73" y="-15.4" font-family="Times-12" font-size="14.00"> &#160;Exports</text>
<g id="clust1" class="cluster">
<title>cluster_PagesModule</title>
<polygon fill="none" stroke="black" stroke-dasharray="1,5" points="28,-70 28,-268 468,-268 468,-70 28,-70"/>
</g>
<g id="clust2" class="cluster">
<title>cluster_PagesModule_declarations</title>
<polygon fill="none" stroke="black" points="188,-78 188,-130 460,-130 460,-78 188,-78"/>
</g>
<g id="clust6" class="cluster">
<title>cluster_PagesModule_imports</title>
<polygon fill="none" stroke="black" points="36,-78 36,-130 180,-130 180,-78 36,-78"/>
</g>
<g id="clust7" class="cluster">
<title>cluster_PagesModule_exports</title>
<polygon fill="none" stroke="black" points="130,-208 130,-260 410,-260 410,-208 130,-208"/>
</g>
<!-- Home -->
<g id="node1" class="node">
<title>Home</title>
<polygon fill="#ffffb3" stroke="black" points="452,-122 398,-122 398,-86 452,-86 452,-122"/>
<text text-anchor="middle" x="425" y="-99.8" font-family="Times,serif" font-size="14.00">Home</text>
</g>
<!-- PagesModule -->
<g id="node4" class="node">
<title>PagesModule</title>
<polygon fill="#8dd3c7" stroke="black" points="336.21,-187 333.21,-191 312.21,-191 309.21,-187 243.79,-187 243.79,-151 336.21,-151 336.21,-187"/>
<text text-anchor="middle" x="290" y="-164.8" font-family="Times,serif" font-size="14.00">PagesModule</text>
</g>
<!-- Home&#45;&gt;PagesModule -->
<g id="edge1" class="edge">
<title>Home&#45;&gt;PagesModule</title>
<path fill="none" stroke="black" d="M427,-122.02C427,-139.37 427,-163 427,-163 427,-163 346.38,-163 346.38,-163"/>
<polygon fill="black" stroke="black" points="346.38,-159.5 336.38,-163 346.38,-166.5 346.38,-159.5"/>
</g>
<!-- LoginPage -->
<g id="node2" class="node">
<title>LoginPage</title>
<polygon fill="#ffffb3" stroke="black" points="380.16,-122 303.84,-122 303.84,-86 380.16,-86 380.16,-122"/>
<text text-anchor="middle" x="342" y="-99.8" font-family="Times,serif" font-size="14.00">LoginPage</text>
</g>
<!-- LoginPage&#45;&gt;PagesModule -->
<g id="edge2" class="edge">
<title>LoginPage&#45;&gt;PagesModule</title>
<path fill="none" stroke="black" d="M319.89,-122.11C319.89,-122.11 319.89,-140.99 319.89,-140.99"/>
<polygon fill="black" stroke="black" points="316.39,-140.99 319.89,-150.99 323.39,-140.99 316.39,-140.99"/>
</g>
<!-- RegisterPage -->
<g id="node3" class="node">
<title>RegisterPage</title>
<polygon fill="#ffffb3" stroke="black" points="285.86,-122 196.14,-122 196.14,-86 285.86,-86 285.86,-122"/>
<text text-anchor="middle" x="241" y="-99.8" font-family="Times,serif" font-size="14.00">RegisterPage</text>
</g>
<!-- RegisterPage&#45;&gt;PagesModule -->
<g id="edge3" class="edge">
<title>RegisterPage&#45;&gt;PagesModule</title>
<path fill="none" stroke="black" d="M264.91,-122.11C264.91,-122.11 264.91,-140.99 264.91,-140.99"/>
<polygon fill="black" stroke="black" points="261.41,-140.99 264.91,-150.99 268.41,-140.99 261.41,-140.99"/>
</g>
<!-- Home  -->
<g id="node6" class="node">
<title>Home </title>
<polygon fill="#fb8072" stroke="black" points="402,-252 348,-252 348,-216 402,-216 402,-252"/>
<text text-anchor="middle" x="375" y="-229.8" font-family="Times,serif" font-size="14.00">Home </text>
</g>
<!-- PagesModule&#45;&gt;Home  -->
<g id="edge5" class="edge">
<title>PagesModule&#45;&gt;Home </title>
<path fill="none" stroke="black" stroke-dasharray="5,2" d="M336.13,-175C351.21,-175 364.16,-175 364.16,-175 364.16,-175 364.16,-205.98 364.16,-205.98"/>
<polygon fill="black" stroke="black" points="360.66,-205.98 364.16,-215.98 367.66,-205.98 360.66,-205.98"/>
</g>
<!-- LoginPage  -->
<g id="node7" class="node">
<title>LoginPage </title>
<polygon fill="#fb8072" stroke="black" points="330.16,-252 249.84,-252 249.84,-216 330.16,-216 330.16,-252"/>
<text text-anchor="middle" x="290" y="-229.8" font-family="Times,serif" font-size="14.00">LoginPage </text>
</g>
<!-- PagesModule&#45;&gt;LoginPage  -->
<g id="edge6" class="edge">
<title>PagesModule&#45;&gt;LoginPage </title>
<path fill="none" stroke="black" stroke-dasharray="5,2" d="M290,-187.11C290,-187.11 290,-205.99 290,-205.99"/>
<polygon fill="black" stroke="black" points="286.5,-205.99 290,-215.99 293.5,-205.99 286.5,-205.99"/>
</g>
<!-- RegisterPage  -->
<g id="node8" class="node">
<title>RegisterPage </title>
<polygon fill="#fb8072" stroke="black" points="231.86,-252 138.14,-252 138.14,-216 231.86,-216 231.86,-252"/>
<text text-anchor="middle" x="185" y="-229.8" font-family="Times,serif" font-size="14.00">RegisterPage </text>
</g>
<!-- PagesModule&#45;&gt;RegisterPage  -->
<g id="edge7" class="edge">
<title>PagesModule&#45;&gt;RegisterPage </title>
<path fill="none" stroke="black" stroke-dasharray="5,2" d="M243.52,-175C227.68,-175 213.88,-175 213.88,-175 213.88,-175 213.88,-205.98 213.88,-205.98"/>
<polygon fill="black" stroke="black" points="210.38,-205.98 213.88,-215.98 217.38,-205.98 210.38,-205.98"/>
</g>
<!-- NgOptimizedImage -->
<g id="node5" class="node">
<title>NgOptimizedImage</title>
<polygon fill="#8dd3c7" stroke="black" points="171.69,-122 168.69,-126 147.69,-126 144.69,-122 44.31,-122 44.31,-86 171.69,-86 171.69,-122"/>
<text text-anchor="middle" x="108" y="-99.8" font-family="Times,serif" font-size="14.00">NgOptimizedImage</text>
</g>
<!-- NgOptimizedImage&#45;&gt;PagesModule -->
<g id="edge4" class="edge">
<title>NgOptimizedImage&#45;&gt;PagesModule</title>
<path fill="none" stroke="black" d="M154.96,-122.02C154.96,-139.37 154.96,-163 154.96,-163 154.96,-163 233.53,-163 233.53,-163"/>
<polygon fill="black" stroke="black" points="233.53,-166.5 243.53,-163 233.53,-159.5 233.53,-166.5"/>
</g>
</g>
</svg>
