<?xml version="1.0" encoding="UTF-8" standalone="no"?>
<!DOCTYPE svg PUBLIC "-//W3C//DTD SVG 1.1//EN"
 "http://www.w3.org/Graphics/SVG/1.1/DTD/svg11.dtd">
<!-- Generated by graphviz version 2.47.0 (20210316.0004)
 -->
<!-- Title: dependencies Pages: 1 -->
<svg width="1731pt" height="363pt"
 viewBox="0.00 0.00 1731.00 363.00" xmlns="http://www.w3.org/2000/svg" xmlns:xlink="http://www.w3.org/1999/xlink">
<g id="graph0" class="graph" transform="scale(1 1) rotate(0) translate(4 359)">
<title>dependencies</title>
<polygon fill="white" stroke="transparent" points="-4,4 -4,-359 1727,-359 1727,4 -4,4"/>
<text text-anchor="start" x="840.51" y="-42.4" font-family="Times-12" font-weight="bold" font-size="14.00">Legend</text>
<polygon fill="#ffffb3" stroke="transparent" points="627.5,-10 627.5,-30 647.5,-30 647.5,-10 627.5,-10"/>
<text text-anchor="start" x="651.13" y="-15.4" font-family="Times-12" font-size="14.00"> &#160;Declarations</text>
<polygon fill="#8dd3c7" stroke="transparent" points="740.5,-10 740.5,-30 760.5,-30 760.5,-10 740.5,-10"/>
<text text-anchor="start" x="764.23" y="-15.4" font-family="Times-12" font-size="14.00"> &#160;Module</text>
<polygon fill="#80b1d3" stroke="transparent" points="826.5,-10 826.5,-30 846.5,-30 846.5,-10 826.5,-10"/>
<text text-anchor="start" x="850.28" y="-15.4" font-family="Times-12" font-size="14.00"> &#160;Bootstrap</text>
<polygon fill="#fdb462" stroke="transparent" points="923.5,-10 923.5,-30 943.5,-30 943.5,-10 923.5,-10"/>
<text text-anchor="start" x="947.17" y="-15.4" font-family="Times-12" font-size="14.00"> &#160;Providers</text>
<polygon fill="#fb8072" stroke="transparent" points="1019.5,-10 1019.5,-30 1039.5,-30 1039.5,-10 1019.5,-10"/>
<text text-anchor="start" x="1043.23" y="-15.4" font-family="Times-12" font-size="14.00"> &#160;Exports</text>
<g id="clust1" class="cluster">
<title>cluster_AppModule</title>
<polygon fill="none" stroke="black" stroke-dasharray="1,5" points="314,-146 314,-347 662,-347 662,-146 314,-146"/>
</g>
<g id="clust2" class="cluster">
<title>cluster_AppModule_declarations</title>
<polygon fill="none" stroke="black" points="584,-154 584,-206 654,-206 654,-154 584,-154"/>
</g>
<g id="clust4" class="cluster">
<title>cluster_AppModule_imports</title>
<polygon fill="none" stroke="black" points="322,-154 322,-206 576,-206 576,-154 322,-154"/>
</g>
<g id="clust6" class="cluster">
<title>cluster_AppModule_bootstrap</title>
<polygon fill="none" stroke="black" points="469,-287 469,-339 539,-339 539,-287 469,-287"/>
</g>
<g id="clust14" class="cluster">
<title>cluster_ComponentsModule</title>
<polygon fill="none" stroke="black" stroke-dasharray="1,5" points="744,-70 744,-279 890,-279 890,-70 744,-70"/>
</g>
<g id="clust15" class="cluster">
<title>cluster_ComponentsModule_declarations</title>
<polygon fill="none" stroke="black" points="781,-78 781,-130 853,-130 853,-78 781,-78"/>
</g>
<g id="clust18" class="cluster">
<title>cluster_ComponentsModule_exports</title>
<polygon fill="none" stroke="black" points="779,-219 779,-271 855,-271 855,-219 779,-219"/>
</g>
<g id="clust21" class="cluster">
<title>cluster_PagesModule</title>
<polygon fill="none" stroke="black" stroke-dasharray="1,5" points="8,-70 8,-138 736,-138 736,-70 8,-70"/>
</g>
<g id="clust22" class="cluster">
<title>cluster_PagesModule_declarations</title>
<polygon fill="none" stroke="black" points="456,-78 456,-130 728,-130 728,-78 456,-78"/>
</g>
<g id="clust26" class="cluster">
<title>cluster_PagesModule_imports</title>
<polygon fill="none" stroke="black" points="304,-78 304,-130 448,-130 448,-78 304,-78"/>
</g>
<g id="clust27" class="cluster">
<title>cluster_PagesModule_exports</title>
<polygon fill="none" stroke="black" points="16,-78 16,-130 296,-130 296,-78 16,-78"/>
</g>
<g id="clust30" class="cluster">
<title>cluster_TemplatePlaygroundModule</title>
<polygon fill="none" stroke="black" stroke-dasharray="1,5" points="898,-70 898,-279 1715,-279 1715,-70 898,-70"/>
</g>
<g id="clust31" class="cluster">
<title>cluster_TemplatePlaygroundModule_declarations</title>
<polygon fill="none" stroke="black" points="1493,-78 1493,-130 1707,-130 1707,-78 1493,-78"/>
</g>
<g id="clust35" class="cluster">
<title>cluster_TemplatePlaygroundModule_bootstrap</title>
<polygon fill="none" stroke="black" points="1184,-219 1184,-271 1402,-271 1402,-219 1184,-219"/>
</g>
<g id="clust36" class="cluster">
<title>cluster_TemplatePlaygroundModule_providers</title>
<polygon fill="none" stroke="black" points="906,-78 906,-130 1485,-130 1485,-78 906,-78"/>
</g>
<!-- App -->
<g id="node1" class="node">
<title>App</title>
<polygon fill="#ffffb3" stroke="black" points="646,-198 592,-198 592,-162 646,-162 646,-198"/>
<text text-anchor="middle" x="619" y="-175.8" font-family="Times,serif" font-size="14.00">App</text>
</g>
<!-- AppModule -->
<g id="node2" class="node">
<title>AppModule</title>
<polygon fill="#8dd3c7" stroke="black" points="545.66,-263 542.66,-267 521.66,-267 518.66,-263 462.34,-263 462.34,-227 545.66,-227 545.66,-263"/>
<text text-anchor="middle" x="504" y="-240.8" font-family="Times,serif" font-size="14.00">AppModule</text>
</g>
<!-- App&#45;&gt;AppModule -->
<g id="edge1" class="edge">
<title>App&#45;&gt;AppModule</title>
<path fill="none" stroke="black" d="M619,-198.11C619,-217.34 619,-245 619,-245 619,-245 555.84,-245 555.84,-245"/>
<polygon fill="black" stroke="black" points="555.84,-241.5 545.84,-245 555.84,-248.5 555.84,-241.5"/>
</g>
<!-- App  -->
<g id="node5" class="node">
<title>App </title>
<polygon fill="#80b1d3" stroke="black" points="531,-331 477,-331 477,-295 531,-295 531,-331"/>
<text text-anchor="middle" x="504" y="-308.8" font-family="Times,serif" font-size="14.00">App </text>
</g>
<!-- AppModule&#45;&gt;App  -->
<g id="edge4" class="edge">
<title>AppModule&#45;&gt;App </title>
<path fill="none" stroke="black" stroke-dasharray="1,5" d="M504,-263.22C504,-263.22 504,-284.73 504,-284.73"/>
<polygon fill="black" stroke="black" points="500.5,-284.73 504,-294.73 507.5,-284.73 500.5,-284.73"/>
</g>
<!-- AppRoutingModule -->
<g id="node3" class="node">
<title>AppRoutingModule</title>
<polygon fill="#8dd3c7" stroke="black" points="568.27,-198 565.27,-202 544.27,-202 541.27,-198 439.73,-198 439.73,-162 568.27,-162 568.27,-198"/>
<text text-anchor="middle" x="504" y="-175.8" font-family="Times,serif" font-size="14.00">AppRoutingModule</text>
</g>
<!-- AppRoutingModule&#45;&gt;AppModule -->
<g id="edge2" class="edge">
<title>AppRoutingModule&#45;&gt;AppModule</title>
<path fill="none" stroke="black" d="M504,-198.11C504,-198.11 504,-216.99 504,-216.99"/>
<polygon fill="black" stroke="black" points="500.5,-216.99 504,-226.99 507.5,-216.99 500.5,-216.99"/>
</g>
<!-- PagesModule -->
<g id="node4" class="node">
<title>PagesModule</title>
<polygon fill="#8dd3c7" stroke="black" points="422.21,-198 419.21,-202 398.21,-202 395.21,-198 329.79,-198 329.79,-162 422.21,-162 422.21,-198"/>
<text text-anchor="middle" x="376" y="-175.8" font-family="Times,serif" font-size="14.00">PagesModule</text>
</g>
<!-- PagesModule&#45;&gt;AppModule -->
<g id="edge3" class="edge">
<title>PagesModule&#45;&gt;AppModule</title>
<path fill="none" stroke="black" d="M376,-198.11C376,-217.34 376,-245 376,-245 376,-245 452.09,-245 452.09,-245"/>
<polygon fill="black" stroke="black" points="452.09,-248.5 462.09,-245 452.09,-241.5 452.09,-248.5"/>
</g>
<!-- Home  -->
<g id="node13" class="node">
<title>Home </title>
<polygon fill="#fb8072" stroke="black" points="288,-122 234,-122 234,-86 288,-86 288,-122"/>
<text text-anchor="middle" x="261" y="-99.8" font-family="Times,serif" font-size="14.00">Home </text>
</g>
<!-- PagesModule&#45;&gt;Home  -->
<g id="edge11" class="edge">
<title>PagesModule&#45;&gt;Home </title>
<path fill="none" stroke="black" stroke-dasharray="5,2" d="M329.89,-171C297.89,-171 261,-171 261,-171 261,-171 261,-132.31 261,-132.31"/>
<polygon fill="black" stroke="black" points="264.5,-132.31 261,-122.31 257.5,-132.31 264.5,-132.31"/>
</g>
<!-- LoginPage  -->
<g id="node14" class="node">
<title>LoginPage </title>
<polygon fill="#fb8072" stroke="black" points="216.16,-122 135.84,-122 135.84,-86 216.16,-86 216.16,-122"/>
<text text-anchor="middle" x="176" y="-99.8" font-family="Times,serif" font-size="14.00">LoginPage </text>
</g>
<!-- PagesModule&#45;&gt;LoginPage  -->
<g id="edge12" class="edge">
<title>PagesModule&#45;&gt;LoginPage </title>
<path fill="none" stroke="black" stroke-dasharray="5,2" d="M329.86,-180C270.8,-180 176,-180 176,-180 176,-180 176,-132.01 176,-132.01"/>
<polygon fill="black" stroke="black" points="179.5,-132.01 176,-122.01 172.5,-132.01 179.5,-132.01"/>
</g>
<!-- RegisterPage  -->
<g id="node15" class="node">
<title>RegisterPage </title>
<polygon fill="#fb8072" stroke="black" points="117.86,-122 24.14,-122 24.14,-86 117.86,-86 117.86,-122"/>
<text text-anchor="middle" x="71" y="-99.8" font-family="Times,serif" font-size="14.00">RegisterPage </text>
</g>
<!-- PagesModule&#45;&gt;RegisterPage  -->
<g id="edge13" class="edge">
<title>PagesModule&#45;&gt;RegisterPage </title>
<path fill="none" stroke="black" stroke-dasharray="5,2" d="M329.68,-189C244.35,-189 71,-189 71,-189 71,-189 71,-132.03 71,-132.03"/>
<polygon fill="black" stroke="black" points="74.5,-132.03 71,-122.03 67.5,-132.03 74.5,-132.03"/>
</g>
<!-- Header -->
<g id="node6" class="node">
<title>Header</title>
<polygon fill="#ffffb3" stroke="black" points="845.41,-122 788.59,-122 788.59,-86 845.41,-86 845.41,-122"/>
<text text-anchor="middle" x="817" y="-99.8" font-family="Times,serif" font-size="14.00">Header</text>
</g>
<!-- ComponentsModule -->
<g id="node7" class="node">
<title>ComponentsModule</title>
<polygon fill="#8dd3c7" stroke="black" points="882.33,-198 879.33,-202 858.33,-202 855.33,-198 751.67,-198 751.67,-162 882.33,-162 882.33,-198"/>
<text text-anchor="middle" x="817" y="-175.8" font-family="Times,serif" font-size="14.00">ComponentsModule</text>
</g>
<!-- Header&#45;&gt;ComponentsModule -->
<g id="edge5" class="edge">
<title>Header&#45;&gt;ComponentsModule</title>
<path fill="none" stroke="black" d="M817,-122.01C817,-122.01 817,-151.85 817,-151.85"/>
<polygon fill="black" stroke="black" points="813.5,-151.85 817,-161.85 820.5,-151.85 813.5,-151.85"/>
</g>
<!-- Header  -->
<g id="node8" class="node">
<title>Header </title>
<polygon fill="#fb8072" stroke="black" points="846.91,-263 787.09,-263 787.09,-227 846.91,-227 846.91,-263"/>
<text text-anchor="middle" x="817" y="-240.8" font-family="Times,serif" font-size="14.00">Header </text>
</g>
<!-- ComponentsModule&#45;&gt;Header  -->
<g id="edge6" class="edge">
<title>ComponentsModule&#45;&gt;Header </title>
<path fill="none" stroke="black" stroke-dasharray="5,2" d="M817,-198.11C817,-198.11 817,-216.99 817,-216.99"/>
<polygon fill="black" stroke="black" points="813.5,-216.99 817,-226.99 820.5,-216.99 813.5,-216.99"/>
</g>
<!-- Home -->
<g id="node9" class="node">
<title>Home</title>
<polygon fill="#ffffb3" stroke="black" points="720,-122 666,-122 666,-86 720,-86 720,-122"/>
<text text-anchor="middle" x="693" y="-99.8" font-family="Times,serif" font-size="14.00">Home</text>
</g>
<!-- Home&#45;&gt;PagesModule -->
<g id="edge7" class="edge">
<title>Home&#45;&gt;PagesModule</title>
<path fill="none" stroke="black" d="M693,-122.15C693,-135.74 693,-152 693,-152 693,-152 403.66,-152 403.66,-152 403.66,-152 403.66,-152.98 403.66,-152.98"/>
<polygon fill="black" stroke="black" points="400.16,-151.79 403.66,-161.79 407.16,-151.79 400.16,-151.79"/>
</g>
<!-- LoginPage -->
<g id="node10" class="node">
<title>LoginPage</title>
<polygon fill="#ffffb3" stroke="black" points="648.16,-122 571.84,-122 571.84,-86 648.16,-86 648.16,-122"/>
<text text-anchor="middle" x="610" y="-99.8" font-family="Times,serif" font-size="14.00">LoginPage</text>
</g>
<!-- LoginPage&#45;&gt;PagesModule -->
<g id="edge8" class="edge">
<title>LoginPage&#45;&gt;PagesModule</title>
<path fill="none" stroke="black" d="M581.84,-122.11C581.84,-131.9 581.84,-142 581.84,-142 581.84,-142 385.22,-142 385.22,-142 385.22,-142 385.22,-151.89 385.22,-151.89"/>
<polygon fill="black" stroke="black" points="381.72,-151.89 385.22,-161.89 388.72,-151.89 381.72,-151.89"/>
</g>
<!-- RegisterPage -->
<g id="node11" class="node">
<title>RegisterPage</title>
<polygon fill="#ffffb3" stroke="black" points="553.86,-122 464.14,-122 464.14,-86 553.86,-86 553.86,-122"/>
<text text-anchor="middle" x="509" y="-99.8" font-family="Times,serif" font-size="14.00">RegisterPage</text>
</g>
<!-- RegisterPage&#45;&gt;PagesModule -->
<g id="edge9" class="edge">
<title>RegisterPage&#45;&gt;PagesModule</title>
<path fill="none" stroke="black" d="M509,-122.21C509,-127.55 509,-132 509,-132 509,-132 366.78,-132 366.78,-132 366.78,-132 366.78,-151.85 366.78,-151.85"/>
<polygon fill="black" stroke="black" points="363.28,-151.85 366.78,-161.85 370.28,-151.85 363.28,-151.85"/>
</g>
<!-- NgOptimizedImage -->
<g id="node12" class="node">
<title>NgOptimizedImage</title>
<polygon fill="#8dd3c7" stroke="black" points="439.69,-122 436.69,-126 415.69,-126 412.69,-122 312.31,-122 312.31,-86 439.69,-86 439.69,-122"/>
<text text-anchor="middle" x="376" y="-99.8" font-family="Times,serif" font-size="14.00">NgOptimizedImage</text>
</g>
<!-- NgOptimizedImage&#45;&gt;PagesModule -->
<g id="edge10" class="edge">
<title>NgOptimizedImage&#45;&gt;PagesModule</title>
<path fill="none" stroke="black" d="M348.34,-122.01C348.34,-122.01 348.34,-151.85 348.34,-151.85"/>
<polygon fill="black" stroke="black" points="344.84,-151.85 348.34,-161.85 351.84,-151.85 344.84,-151.85"/>
</g>
<!-- TemplatePlaygroundComponent -->
<g id="node16" class="node">
<title>TemplatePlaygroundComponent</title>
<polygon fill="#ffffb3" stroke="black" points="1699.25,-122 1500.75,-122 1500.75,-86 1699.25,-86 1699.25,-122"/>
<text text-anchor="middle" x="1600" y="-99.8" font-family="Times,serif" font-size="14.00">TemplatePlaygroundComponent</text>
</g>
<!-- TemplatePlaygroundModule -->
<g id="node17" class="node">
<title>TemplatePlaygroundModule</title>
<polygon fill="#8dd3c7" stroke="black" points="1381.47,-198 1378.47,-202 1357.47,-202 1354.47,-198 1204.53,-198 1204.53,-162 1381.47,-162 1381.47,-198"/>
<text text-anchor="middle" x="1293" y="-175.8" font-family="Times,serif" font-size="14.00">TemplatePlaygroundModule</text>
</g>
<!-- TemplatePlaygroundComponent&#45;&gt;TemplatePlaygroundModule -->
<g id="edge14" class="edge">
<title>TemplatePlaygroundComponent&#45;&gt;TemplatePlaygroundModule</title>
<path fill="none" stroke="black" d="M1600,-122.01C1600,-144.49 1600,-180 1600,-180 1600,-180 1391.8,-180 1391.8,-180"/>
<polygon fill="black" stroke="black" points="1391.8,-176.5 1381.8,-180 1391.8,-183.5 1391.8,-176.5"/>
</g>
<!-- TemplatePlaygroundComponent  -->
<g id="node18" class="node">
<title>TemplatePlaygroundComponent </title>
<polygon fill="#80b1d3" stroke="black" points="1394.25,-263 1191.75,-263 1191.75,-227 1394.25,-227 1394.25,-263"/>
<text text-anchor="middle" x="1293" y="-240.8" font-family="Times,serif" font-size="14.00">TemplatePlaygroundComponent </text>
</g>
<!-- TemplatePlaygroundModule&#45;&gt;TemplatePlaygroundComponent  -->
<g id="edge15" class="edge">
<title>TemplatePlaygroundModule&#45;&gt;TemplatePlaygroundComponent </title>
<path fill="none" stroke="black" stroke-dasharray="1,5" d="M1293,-198.11C1293,-198.11 1293,-216.99 1293,-216.99"/>
<polygon fill="black" stroke="black" points="1289.5,-216.99 1293,-226.99 1296.5,-216.99 1289.5,-216.99"/>
</g>
<!-- HbsRenderService -->
<g id="node19" class="node">
<title>HbsRenderService</title>
<ellipse fill="#fdb462" stroke="black" cx="1394" cy="-104" rx="83.37" ry="18"/>
<text text-anchor="middle" x="1394" y="-99.8" font-family="Times,serif" font-size="14.00">HbsRenderService</text>
</g>
<!-- HbsRenderService&#45;&gt;TemplatePlaygroundModule -->
<g id="edge16" class="edge">
<title>HbsRenderService&#45;&gt;TemplatePlaygroundModule</title>
<path fill="none" stroke="black" d="M1346.03,-119.02C1346.03,-119.02 1346.03,-151.8 1346.03,-151.8"/>
<polygon fill="black" stroke="black" points="1342.53,-151.8 1346.03,-161.8 1349.53,-151.8 1342.53,-151.8"/>
</g>
<!-- TemplateEditorService -->
<g id="node20" class="node">
<title>TemplateEditorService</title>
<ellipse fill="#fdb462" stroke="black" cx="1192" cy="-104" rx="100.7" ry="18"/>
<text text-anchor="middle" x="1192" y="-99.8" font-family="Times,serif" font-size="14.00">TemplateEditorService</text>
</g>
<!-- TemplateEditorService&#45;&gt;TemplatePlaygroundModule -->
<g id="edge17" class="edge">
<title>TemplateEditorService&#45;&gt;TemplatePlaygroundModule</title>
<path fill="none" stroke="black" d="M1248.56,-119.02C1248.56,-119.02 1248.56,-151.8 1248.56,-151.8"/>
<polygon fill="black" stroke="black" points="1245.06,-151.8 1248.56,-161.8 1252.06,-151.8 1245.06,-151.8"/>
</g>
<!-- ZipExportService -->
<g id="node21" class="node">
<title>ZipExportService</title>
<ellipse fill="#fdb462" stroke="black" cx="994" cy="-104" rx="79.87" ry="18"/>
<text text-anchor="middle" x="994" y="-99.8" font-family="Times,serif" font-size="14.00">ZipExportService</text>
</g>
<!-- ZipExportService&#45;&gt;TemplatePlaygroundModule -->
<g id="edge18" class="edge">
<title>ZipExportService&#45;&gt;TemplatePlaygroundModule</title>
<path fill="none" stroke="black" d="M994,-122.01C994,-144.49 994,-180 994,-180 994,-180 1194.5,-180 1194.5,-180"/>
<polygon fill="black" stroke="black" points="1194.5,-183.5 1204.5,-180 1194.5,-176.5 1194.5,-183.5"/>
</g>
</g>
</svg>
